<svg width="104" height="24" viewBox="0 0 104 24" fill="none" xmlns="http://www.w3.org/2000/svg">
<g id="Frame" clip-path="url(#clip0_17_1832)">
<g id="Group">
<path id="Vector" d="M22.5352 5.71582C23.9765 5.71582 25.3625 5.71582 26.7761 5.71582C26.8038 5.8268 26.8316 5.93779 26.8316 6.04877C26.8316 9.57247 26.8593 13.0962 26.8038 16.6199C26.7761 18.2846 26.4158 19.9216 25.4179 21.3366C24.5032 22.6684 23.1727 23.3898 21.6205 23.7228C19.791 24.1112 17.9616 24.1389 16.1876 23.3898C14.968 22.8626 13.9979 22.0858 13.4435 20.8372C11.8635 23.5563 9.34115 24.1112 6.51386 23.9447C4.82303 23.8337 3.27079 23.3898 2.05117 22.1135C0.997868 21.0314 0.471215 19.6719 0.221748 18.2014C0.0831556 17.48 0.0277185 16.7586 0 16.0372C0 12.7355 0 9.43374 0 6.13201C0 5.99328 0.0277185 5.88229 0.0277185 5.71582C1.44136 5.71582 2.85501 5.71582 4.32409 5.71582C4.32409 5.93779 4.32409 6.132 4.32409 6.32622C4.32409 9.43374 4.32409 12.5135 4.32409 15.621C4.32409 16.7031 4.37953 17.7852 4.96162 18.7285C5.21109 19.117 5.59915 19.5054 6.01493 19.7274C8.371 20.9204 10.8934 19.5332 11.1706 16.8696C11.226 16.2592 11.2537 15.6488 11.2537 15.0384C11.2537 12.0973 11.2537 9.18403 11.2537 6.24299C11.2537 6.07651 11.2537 5.91004 11.2537 5.71582C12.6951 5.71582 14.081 5.71582 15.5501 5.71582C15.5501 5.88229 15.5501 6.07651 15.5501 6.24299C15.5501 9.32276 15.5224 12.3748 15.5778 15.4268C15.6055 16.3979 15.7719 17.3967 16.0768 18.3124C16.4094 19.3667 17.2964 19.8939 18.4051 20.0048C18.71 20.0326 19.0426 20.0326 19.3475 20.0326C20.8721 19.9493 21.8977 19.1447 22.2303 17.6742C22.3966 16.8973 22.5075 16.1204 22.5075 15.3436C22.5352 12.3193 22.5075 9.32276 22.5075 6.29848C22.5352 6.13201 22.5352 5.93779 22.5352 5.71582Z" fill="#041B29"/>
<path id="Vector_2" d="M46.2345 16.6195C42.1876 16.6195 38.1961 16.6195 34.2046 16.6195C34.1769 17.8403 35.1193 19.1998 36.3112 19.6993C38.2238 20.5039 40.275 20.0877 41.7718 18.6449C41.8549 18.5617 41.9935 18.4785 42.1044 18.4785C43.4072 18.4785 44.71 18.4785 46.0404 18.4785C46.0127 19.3663 45.7633 20.1432 45.3198 20.8368C44.4605 22.1686 43.2132 23.001 41.7441 23.4727C39.5543 24.1663 37.3368 24.2218 35.1471 23.5282C32.4584 22.6958 30.7675 20.8646 30.0468 18.1733C29.4093 15.7871 29.4093 13.401 30.13 11.0704C30.9893 8.32355 32.9296 6.7143 35.646 6.0484C37.3923 5.60447 39.1385 5.63222 40.8848 6.07615C43.7121 6.79754 45.3752 8.68424 46.0404 11.4866C46.4562 13.1235 46.4285 14.8438 46.2345 16.6195ZM42.1044 13.4842C41.9381 12.7906 41.8272 12.1524 41.6332 11.542C41.356 10.6542 40.7185 10.0715 39.8315 9.87731C39.0277 9.71083 38.1961 9.59985 37.3923 9.68309C35.4797 9.87731 34.2323 11.0426 34.0937 13.512C36.6993 13.4842 39.3048 13.4842 42.1044 13.4842Z" fill="#041B29"/>
<path id="Vector_3" d="M95.6012 0.11084C97.0426 0.11084 98.4285 0.11084 99.8976 0.11084C99.8976 2.10853 99.8976 4.07847 99.8976 6.07616C101.284 6.07616 102.642 6.07616 104.028 6.07616C104.028 7.3802 104.028 8.62876 104.028 9.96055C102.669 9.96055 101.339 9.96055 99.953 9.96055C99.953 10.1825 99.9253 10.3212 99.9253 10.4877C99.9253 12.7074 99.9253 14.8993 99.9253 17.1189C99.9253 17.3409 99.9253 17.5351 99.953 17.7571C100.036 19.1444 100.812 19.949 102.198 20.0322C102.808 20.0877 103.418 20.0322 104.055 20.0322C104.055 21.3918 104.055 22.6403 104.055 23.9166C101.45 24.1108 98.9552 24.0553 97.0703 21.8357C96.1279 20.7259 95.6289 19.4218 95.6289 17.979C95.6012 12.1525 95.6289 6.29812 95.6289 0.471534C95.5735 0.388297 95.5735 0.277314 95.6012 0.11084Z" fill="#041B29"/>
<path id="Vector_4" d="M57.9593 11.7364C56.5733 11.7364 55.2428 11.7364 53.8569 11.7364C53.8569 15.815 53.8569 19.8659 53.8569 23.9445C52.4156 23.9445 51.0019 23.9445 49.5605 23.9445C49.5605 23.7503 49.5605 23.5561 49.5605 23.3896C49.5605 17.6185 49.5605 11.8474 49.5883 6.10405C49.5883 5.29942 49.6714 4.4948 49.8654 3.71792C50.3644 1.72023 51.7503 0.610405 53.7183 0.305202C55.1043 0.083237 56.5179 0.110983 57.987 0C57.987 1.38728 57.987 2.63584 57.987 3.99538C57.4603 3.99538 56.906 3.96763 56.3793 3.99538C54.7993 4.07861 54.0787 4.74451 53.9124 6.29827C53.8569 6.79769 53.9124 7.29711 53.9124 7.85202C55.2706 7.85202 56.6288 7.85202 57.987 7.85202C57.9593 9.18382 57.9593 10.4324 57.9593 11.7364Z" fill="#041B29"/>
<path id="Vector_5" d="M67.0234 6.13183C67.4669 6.13183 67.7441 6.13183 68.049 6.13183C69.1578 6.13183 70.2942 6.13183 71.403 6.13183C71.791 6.13183 72.0682 6.24281 72.29 6.6035C73.3433 8.185 74.452 9.76651 75.533 11.3203C75.6162 11.4312 75.6993 11.5145 75.8379 11.681C79.8848 7.99078 83.9318 4.32836 87.9787 0.638184C88.0064 0.665929 88.0341 0.693675 88.0618 0.721421C83.9872 6.46477 79.9126 12.1804 75.7825 18.007C72.872 14.0393 69.9893 10.1549 67.0234 6.13183Z" fill="#0072DE"/>
<path id="Vector_6" d="M60.2045 6.104C61.6736 6.104 63.0595 6.104 64.4731 6.104C64.4731 12.0416 64.4731 17.9514 64.4731 23.9445C64.3068 23.9445 64.1405 23.9722 63.9465 23.9722C62.8932 23.9722 61.8399 23.9445 60.7866 23.9722C60.3153 24 60.1768 23.8612 60.1768 23.3896C60.2045 20.3098 60.1768 17.23 60.1768 14.1502C60.1768 11.6809 60.1768 9.21152 60.1768 6.74215C60.2045 6.54793 60.2045 6.35371 60.2045 6.104Z" fill="#041B29"/>
<path id="Vector_7" d="M89.2812 6.104C90.7226 6.104 92.1085 6.104 93.5499 6.104C93.5499 6.27048 93.5776 6.43695 93.5776 6.60343C93.5776 12.2358 93.5776 17.8404 93.5776 23.4728C93.5776 23.889 93.4668 24 93.051 24C91.9422 23.9722 90.8335 24 89.7525 24C89.6139 24 89.4753 23.9722 89.2812 23.9722C89.2812 18.0069 89.2812 12.0693 89.2812 6.104Z" fill="#041B29"/>
<path id="Vector_8" d="M85.0128 23.9723C83.3219 23.9723 81.7974 23.9723 80.2452 23.9723C80.1343 23.9723 79.968 23.8891 79.8848 23.7781C78.7761 22.2243 77.6673 20.6706 76.5586 19.0891C77.3624 17.9792 78.1663 16.8694 78.9978 15.7041C80.9936 18.4509 82.9616 21.17 85.0128 23.9723Z" fill="#041B29"/>
<path id="Vector_9" d="M66.6079 23.9725C68.6314 21.1979 70.5439 18.5066 72.5397 15.7598C73.1218 16.5644 73.6761 17.2858 74.2305 18.0072C74.48 18.3679 74.8958 18.7286 74.8958 19.0892C74.8958 19.4499 74.48 19.8106 74.2305 20.1436C73.4267 21.2812 72.6228 22.4187 71.819 23.584C71.625 23.8615 71.4309 23.9725 71.0983 23.9447C69.6569 23.9725 68.2156 23.9725 66.6079 23.9725Z" fill="#041B29"/>
<path id="Vector_10" d="M64.501 0.0830078C64.501 1.63677 64.501 3.07954 64.501 4.55006C63.0873 4.55006 61.6737 4.55006 60.2046 4.55006C60.2046 4.30035 60.2046 4.02289 60.2046 3.74544C60.2046 2.66335 60.2046 1.58127 60.2046 0.499193C60.2046 0.360464 60.3709 0.110753 60.4541 0.110753C61.8123 0.0830078 63.1428 0.0830078 64.501 0.0830078Z" fill="#041B29"/>
<path id="Vector_11" d="M93.4945 4.57781C93.4113 4.57781 93.3282 4.60555 93.2727 4.60555C91.9699 4.60555 90.6395 4.60555 89.2812 4.60555C89.2812 3.10729 89.2812 1.63677 89.2812 0.0830078C89.6139 0.0830078 89.9188 0.0830078 90.2514 0.0830078C91.2215 0.0830078 92.1917 0.0830078 93.1618 0.0830078C93.4113 0.0830078 93.5776 0.110753 93.5776 0.415956C93.5776 1.74775 93.5776 3.07954 93.5776 4.41133C93.5499 4.46682 93.5222 4.49457 93.4945 4.57781Z" fill="#041B29"/>
</g>
</g>
<defs>
<clipPath id="clip0_17_1832">
<rect width="104" height="24" fill="white"/>
</clipPath>
</defs>
</svg>
